<svg width="63" height="24" viewBox="0 0 63 24" fill="none" xmlns="http://www.w3.org/2000/svg">
<rect y="0.51355" width="63" height="23" rx="4" fill="#F6AA1C"/>
<path d="M12.5767 15.9226V13.7749L16.6733 7.33173H18.6222V10.1954H17.5085L15.3011 13.6954V13.7749H21.3466V15.9226H12.5767ZM17.5284 17.5135V15.2664L17.5881 14.3317V7.33173H20.1733V17.5135H17.5284ZM24.2676 17.6726C23.8831 17.6726 23.5533 17.5384 23.2782 17.2699C23.0065 16.9982 22.8722 16.6684 22.8755 16.2806C22.8722 15.9028 23.0065 15.5796 23.2782 15.3111C23.5533 15.0427 23.8831 14.9084 24.2676 14.9084C24.6322 14.9084 24.9537 15.0427 25.2321 15.3111C25.5138 15.5796 25.6563 15.9028 25.6596 16.2806C25.6563 16.5391 25.5884 16.7744 25.4558 16.9866C25.3265 17.1954 25.1575 17.3627 24.9487 17.4887C24.7399 17.6113 24.5128 17.6726 24.2676 17.6726ZM27.3327 17.5135L31.3299 9.59878V9.53912H26.6367V7.33173H34.1935V9.53912L30.1765 17.5135H27.3327Z" fill="white"/>
<path d="M44.7308 7.69089C44.8966 7.45444 45.2848 7.45444 45.4507 7.69089L47.2009 10.1862C47.2593 10.2693 47.352 10.329 47.4592 10.3525L50.6773 11.057C50.9822 11.1237 51.1022 11.451 50.8997 11.6639L48.7634 13.9105C48.6922 13.9854 48.6568 14.082 48.6647 14.1797L48.9034 17.1103C48.926 17.388 48.6119 17.5903 48.3209 17.4854L45.2504 16.3786C45.148 16.3417 45.0334 16.3417 44.9311 16.3786L41.8605 17.4854C41.5696 17.5903 41.2555 17.388 41.2781 17.1103L41.5167 14.1797C41.5247 14.082 41.4893 13.9854 41.4181 13.9105L39.2817 11.6639C39.0793 11.451 39.1993 11.1237 39.5042 11.057L42.7222 10.3525C42.8295 10.329 42.9222 10.2693 42.9806 10.1862L44.7308 7.69089Z" fill="white"/>
</svg>
