<svg width="138" height="24" viewBox="0 0 138 24" fill="none" xmlns="http://www.w3.org/2000/svg">
<path d="M2.71231 2.75418C2.04551 2.86633 1.4424 3.18036 0.955408 3.66635C0.595786 4.02897 0.442197 4.25327 0.243656 4.72057C-0.0148225 5.31497 0.000161746 4.93366 0.000161746 11.7001C0.000161746 18.3208 -0.00733038 18.0591 0.206195 18.6199C0.352292 19.0124 0.577056 19.3638 0.895471 19.6965C1.34874 20.1713 1.83573 20.4554 2.48006 20.6274L2.79098 20.7096L8.76595 20.7246C13.0177 20.7321 14.8496 20.7246 15.1118 20.6947C15.891 20.605 16.5203 20.3096 17.0597 19.775C17.4606 19.3788 17.6966 18.9937 17.8914 18.4143L18 18.0965V11.7413V5.386L17.9138 5.09067C17.5992 4.0028 16.7825 3.1841 15.6774 2.83643L15.3403 2.73175L9.12183 2.72801C5.70167 2.72427 2.8172 2.73549 2.71231 2.75418ZM6.70187 9.49449C7.96429 10.7057 8.98697 11.7114 8.98322 11.7263C8.97573 11.7413 7.93807 12.7469 6.67565 13.9619L4.37557 16.1712L3.77994 15.5993C3.45403 15.289 3.18432 15.0123 3.18806 14.9937C3.18806 14.9712 3.94851 14.231 4.87379 13.3488C5.79532 12.4628 6.55203 11.73 6.55577 11.7188C6.55577 11.7039 5.79907 10.9637 4.87005 10.0739C3.94477 9.1842 3.18432 8.44774 3.18432 8.43653C3.18432 8.38793 4.33061 7.27389 4.36807 7.28136C4.3943 7.28884 5.44319 8.28325 6.70187 9.49449ZM14.872 15.4796V16.1712H12.6993H10.5266V15.4796V14.788H12.6993H14.872V15.4796Z" fill="#C92071"/>
<path d="M28.6801 19H23.7877V4.56229H28.7788C30.2123 4.56229 31.4436 4.85133 32.4729 5.4294C33.5068 6.00277 34.3011 6.82758 34.8557 7.90383C35.4102 8.98008 35.6875 10.2678 35.6875 11.767C35.6875 13.271 35.4079 14.5634 34.8486 15.6444C34.294 16.7253 33.4927 17.5548 32.4447 18.1329C31.4013 18.711 30.1465 19 28.6801 19ZM26.4031 16.7371H28.5533C29.559 16.7371 30.3979 16.5538 31.07 16.1872C31.742 15.8159 32.2473 15.2637 32.5857 14.5305C32.924 13.7926 33.0932 12.8715 33.0932 11.767C33.0932 10.6626 32.924 9.74614 32.5857 9.01768C32.2473 8.28451 31.7467 7.73699 31.0841 7.37511C30.4261 7.00852 29.6084 6.82523 28.6308 6.82523H26.4031V16.7371ZM37.8612 19V8.17172H40.4132V19H37.8612ZM39.1442 6.63489C38.7401 6.63489 38.3923 6.50095 38.1009 6.23306C37.8095 5.96047 37.6638 5.63384 37.6638 5.25316C37.6638 4.86777 37.8095 4.54114 38.1009 4.27325C38.3923 4.00067 38.7401 3.86437 39.1442 3.86437C39.5531 3.86437 39.9009 4.00067 40.1876 4.27325C40.479 4.54114 40.6247 4.86777 40.6247 5.25316C40.6247 5.63384 40.479 5.96047 40.1876 6.23306C39.9009 6.50095 39.5531 6.63489 39.1442 6.63489ZM47.5481 23.2862C46.6316 23.2862 45.8444 23.1617 45.1864 22.9126C44.5285 22.6682 43.9997 22.3392 43.6003 21.9256C43.2008 21.512 42.9235 21.0538 42.7684 20.5509L45.0666 19.994C45.17 20.2055 45.3204 20.4146 45.5178 20.6214C45.7152 20.8329 45.9807 21.0068 46.3144 21.1431C46.6528 21.2841 47.0781 21.3546 47.5904 21.3546C48.3141 21.3546 48.9134 21.1783 49.388 20.8259C49.8627 20.4781 50.1001 19.9047 50.1001 19.1057V17.0543H49.9732C49.8416 17.3175 49.6489 17.5877 49.3951 17.865C49.146 18.1423 48.8147 18.3749 48.4011 18.5629C47.9922 18.7509 47.4776 18.8449 46.8572 18.8449C46.0253 18.8449 45.271 18.6499 44.5943 18.2598C43.9222 17.865 43.3864 17.2775 42.9869 16.4974C42.5922 15.7125 42.3948 14.7303 42.3948 13.5506C42.3948 12.3616 42.5922 11.3582 42.9869 10.5404C43.3864 9.71794 43.9245 9.09522 44.6013 8.67224C45.2781 8.24456 46.0324 8.03072 46.8643 8.03072C47.4987 8.03072 48.0204 8.13882 48.4293 8.35501C48.8429 8.5665 49.1718 8.82264 49.4162 9.12342C49.6606 9.41951 49.8463 9.69914 49.9732 9.96233H50.1142V8.17172H52.6309V19.1762C52.6309 20.1021 52.41 20.8682 51.9682 21.4744C51.5264 22.0807 50.9225 22.5342 50.1565 22.835C49.3904 23.1358 48.5209 23.2862 47.5481 23.2862ZM47.5692 16.8428C48.1097 16.8428 48.5703 16.7112 48.951 16.448C49.3316 16.1848 49.6207 15.8065 49.8181 15.313C50.0155 14.8195 50.1142 14.2274 50.1142 13.5365C50.1142 12.855 50.0155 12.2582 49.8181 11.7459C49.6254 11.2336 49.3387 10.8365 48.958 10.5545C48.582 10.2678 48.1191 10.1245 47.5692 10.1245C47.0006 10.1245 46.5259 10.2725 46.1452 10.5686C45.7645 10.8647 45.4778 11.2712 45.2851 11.7882C45.0924 12.3005 44.9961 12.8832 44.9961 13.5365C44.9961 14.1992 45.0924 14.7796 45.2851 15.2778C45.4825 15.7713 45.7716 16.1566 46.1522 16.4339C46.5376 16.7065 47.01 16.8428 47.5692 16.8428ZM55.0478 19V8.17172H57.5998V19H55.0478ZM56.3308 6.63489C55.9266 6.63489 55.5789 6.50095 55.2875 6.23306C54.9961 5.96047 54.8504 5.63384 54.8504 5.25316C54.8504 4.86777 54.9961 4.54114 55.2875 4.27325C55.5789 4.00067 55.9266 3.86437 56.3308 3.86437C56.7397 3.86437 57.0875 4.00067 57.3742 4.27325C57.6656 4.54114 57.8113 4.86777 57.8113 5.25316C57.8113 5.63384 57.6656 5.96047 57.3742 6.23306C57.0875 6.50095 56.7397 6.63489 56.3308 6.63489ZM65.4326 8.17172V10.1456H59.2077V8.17172H65.4326ZM60.7446 5.57744H63.2965V15.7431C63.2965 16.0861 63.3482 16.3493 63.4516 16.5326C63.5597 16.7112 63.7007 16.8334 63.8746 16.8992C64.0485 16.965 64.2412 16.9979 64.4527 16.9979C64.6125 16.9979 64.7582 16.9861 64.8898 16.9626C65.026 16.9391 65.1294 16.918 65.1999 16.8992L65.63 18.8943C65.4937 18.9413 65.2986 18.993 65.0448 19.0493C64.7958 19.1057 64.4903 19.1386 64.1284 19.148C63.4892 19.1668 62.9135 19.0705 62.4012 18.859C61.8889 18.6428 61.4824 18.3091 61.1816 17.858C60.8855 17.4068 60.7399 16.8428 60.7446 16.166V5.57744ZM70.4843 19.2185C69.7981 19.2185 69.1801 19.0963 68.6302 18.852C68.0851 18.6029 67.6527 18.2363 67.3331 17.7522C67.0182 17.2681 66.8608 16.6713 66.8608 15.9616C66.8608 15.3506 66.9736 14.8454 67.1992 14.4459C67.4247 14.0464 67.7326 13.7269 68.1227 13.4872C68.5127 13.2475 68.9522 13.0665 69.4409 12.9443C69.9344 12.8174 70.4444 12.7258 70.9707 12.6694C71.6052 12.6036 72.1198 12.5449 72.5146 12.4932C72.9094 12.4368 73.1961 12.3522 73.3747 12.2394C73.558 12.1219 73.6496 11.9409 73.6496 11.6965V11.6543C73.6496 11.1232 73.4922 10.7119 73.1773 10.4206C72.8624 10.1292 72.4089 9.98348 71.8167 9.98348C71.1916 9.98348 70.6958 10.1198 70.3292 10.3924C69.9673 10.6649 69.7229 10.9869 69.596 11.3582L67.2133 11.0198C67.4012 10.3618 67.7114 9.81194 68.1438 9.37016C68.5762 8.92368 69.1049 8.59 69.73 8.36911C70.3551 8.14352 71.0459 8.03072 71.8026 8.03072C72.3243 8.03072 72.8436 8.09182 73.3606 8.21401C73.8775 8.33621 74.3499 8.5383 74.7775 8.82029C75.2052 9.09757 75.5483 9.4759 75.8068 9.95528C76.07 10.4347 76.2016 11.0339 76.2016 11.7529V19H73.7483V17.5125H73.6637C73.5086 17.8133 73.2901 18.0953 73.0081 18.3585C72.7308 18.617 72.3807 18.8261 71.9577 18.9859C71.5394 19.141 71.0483 19.2185 70.4843 19.2185ZM71.147 17.3433C71.6592 17.3433 72.1034 17.2423 72.4794 17.0402C72.8553 16.8334 73.1444 16.5608 73.3465 16.2224C73.5533 15.884 73.6566 15.5151 73.6566 15.1156V13.8396C73.5768 13.9054 73.4405 13.9665 73.2478 14.0229C73.0598 14.0793 72.8483 14.1287 72.6133 14.171C72.3783 14.2133 72.1457 14.2509 71.9154 14.2838C71.6851 14.3167 71.4854 14.3449 71.3162 14.3684C70.9355 14.4201 70.5947 14.5047 70.294 14.6222C69.9932 14.7397 69.7558 14.9041 69.5819 15.1156C69.4081 15.3224 69.3211 15.5903 69.3211 15.9193C69.3211 16.3893 69.4926 16.7441 69.8357 16.9838C70.1788 17.2235 70.6159 17.3433 71.147 17.3433ZM81.1211 4.56229V19H78.5691V4.56229H81.1211ZM96.2316 8.53125C96.1658 7.91558 95.8885 7.4362 95.3997 7.09312C94.9156 6.75003 94.2859 6.57849 93.5104 6.57849C92.9652 6.57849 92.4976 6.66074 92.1075 6.82523C91.7174 6.98972 91.419 7.21296 91.2122 7.49495C91.0054 7.77694 90.8997 8.09887 90.895 8.46075C90.895 8.76154 90.9631 9.02238 91.0994 9.24327C91.2404 9.46416 91.4308 9.65215 91.6704 9.80724C91.9101 9.95763 92.1757 10.0845 92.4671 10.1879C92.7584 10.2913 93.0522 10.3783 93.3483 10.4488L94.7018 10.7871C95.247 10.914 95.771 11.0856 96.2739 11.3018C96.7814 11.518 97.235 11.7905 97.6345 12.1195C98.0386 12.4485 98.3582 12.8456 98.5932 13.3109C98.8282 13.7762 98.9457 14.3214 98.9457 14.9464C98.9457 15.7924 98.7295 16.5373 98.2971 17.1812C97.8647 17.8204 97.2397 18.3209 96.4219 18.6828C95.6089 19.0399 94.6242 19.2185 93.4681 19.2185C92.3449 19.2185 91.3697 19.0446 90.5425 18.6969C89.72 18.3491 89.0762 17.8415 88.6109 17.1741C88.1503 16.5068 87.9012 15.6937 87.8636 14.735H90.4367C90.4743 15.2378 90.6294 15.6561 90.902 15.9898C91.1746 16.3235 91.5294 16.5726 91.9665 16.7371C92.4083 16.9016 92.9018 16.9838 93.447 16.9838C94.0156 16.9838 94.5138 16.8992 94.9415 16.73C95.3739 16.5561 95.7122 16.3164 95.9566 16.0109C96.201 15.7008 96.3256 15.3389 96.3303 14.9253C96.3256 14.5493 96.2151 14.2391 95.9989 13.9947C95.7827 13.7457 95.4796 13.5389 95.0895 13.3744C94.7041 13.2052 94.253 13.0548 93.736 12.9232L92.0934 12.5002C90.9044 12.1947 89.9644 11.7318 89.2736 11.1114C88.5874 10.4864 88.2443 9.65685 88.2443 8.62289C88.2443 7.77224 88.4746 7.02732 88.9352 6.38815C89.4004 5.74898 90.0326 5.25316 90.8315 4.90067C91.6305 4.54349 92.5352 4.3649 93.5457 4.3649C94.5702 4.3649 95.4679 4.54349 96.2386 4.90067C97.0141 5.25316 97.6227 5.74428 98.0645 6.37405C98.5063 6.99912 98.7342 7.71819 98.7483 8.53125H96.2316ZM106.373 8.17172V10.1456H100.148V8.17172H106.373ZM101.685 5.57744H104.237V15.7431C104.237 16.0861 104.289 16.3493 104.392 16.5326C104.5 16.7112 104.641 16.8334 104.815 16.8992C104.989 16.965 105.182 16.9979 105.393 16.9979C105.553 16.9979 105.699 16.9861 105.83 16.9626C105.967 16.9391 106.07 16.918 106.141 16.8992L106.571 18.8943C106.434 18.9413 106.239 18.993 105.985 19.0493C105.736 19.1057 105.431 19.1386 105.069 19.148C104.43 19.1668 103.854 19.0705 103.342 18.859C102.83 18.6428 102.423 18.3091 102.122 17.858C101.826 17.4068 101.68 16.8428 101.685 16.166V5.57744ZM112.916 19.2115C111.858 19.2115 110.942 18.9789 110.166 18.5136C109.391 18.0483 108.789 17.3974 108.362 16.5608C107.939 15.7243 107.727 14.7467 107.727 13.6282C107.727 12.5096 107.939 11.5297 108.362 10.6884C108.789 9.84719 109.391 9.19392 110.166 8.72864C110.942 8.26336 111.858 8.03072 112.916 8.03072C113.973 8.03072 114.89 8.26336 115.665 8.72864C116.441 9.19392 117.04 9.84719 117.463 10.6884C117.891 11.5297 118.104 12.5096 118.104 13.6282C118.104 14.7467 117.891 15.7243 117.463 16.5608C117.04 17.3974 116.441 18.0483 115.665 18.5136C114.89 18.9789 113.973 19.2115 112.916 19.2115ZM112.93 17.1671C113.503 17.1671 113.983 17.0096 114.368 16.6948C114.753 16.3752 115.04 15.9475 115.228 15.4117C115.421 14.8759 115.517 14.2791 115.517 13.6211C115.517 12.9584 115.421 12.3592 115.228 11.8234C115.04 11.283 114.753 10.8529 114.368 10.5334C113.983 10.2138 113.503 10.054 112.93 10.054C112.342 10.054 111.854 10.2138 111.464 10.5334C111.078 10.8529 110.789 11.283 110.597 11.8234C110.409 12.3592 110.315 12.9584 110.315 13.6211C110.315 14.2791 110.409 14.8759 110.597 15.4117C110.789 15.9475 111.078 16.3752 111.464 16.6948C111.854 17.0096 112.342 17.1671 112.93 17.1671ZM120.072 19V8.17172H122.546V9.97643H122.659C122.857 9.35136 123.195 8.86963 123.674 8.53125C124.158 8.18817 124.711 8.01662 125.331 8.01662C125.472 8.01662 125.629 8.02367 125.803 8.03777C125.982 8.04717 126.13 8.06362 126.247 8.08712V10.4347C126.139 10.3971 125.968 10.3642 125.733 10.336C125.503 10.3031 125.279 10.2866 125.063 10.2866C124.598 10.2866 124.18 10.3877 123.808 10.5898C123.442 10.7871 123.153 11.0621 122.941 11.4146C122.73 11.767 122.624 12.1736 122.624 12.6342V19H120.072ZM132.092 19.2115C131.007 19.2115 130.069 18.9859 129.279 18.5347C128.495 18.0788 127.891 17.435 127.468 16.6031C127.045 15.7666 126.833 14.782 126.833 13.6493C126.833 12.5355 127.045 11.5579 127.468 10.7166C127.895 9.87069 128.492 9.21272 129.258 8.74274C130.024 8.26806 130.924 8.03072 131.958 8.03072C132.626 8.03072 133.255 8.13882 133.848 8.35501C134.444 8.5665 134.971 8.89548 135.427 9.34196C135.887 9.78844 136.249 10.3571 136.512 11.048C136.776 11.7341 136.907 12.5519 136.907 13.5013V14.2838H128.032V12.5637H134.461C134.456 12.0749 134.35 11.6402 134.144 11.2595C133.937 10.8741 133.648 10.571 133.277 10.3501C132.91 10.1292 132.482 10.0187 131.994 10.0187C131.472 10.0187 131.014 10.1456 130.619 10.3994C130.224 10.6485 129.916 10.9775 129.695 11.3864C129.479 11.7905 129.369 12.2347 129.364 12.7187V14.2203C129.364 14.8501 129.479 15.3906 129.709 15.8418C129.94 16.2882 130.262 16.6313 130.675 16.871C131.089 17.106 131.573 17.2235 132.127 17.2235C132.499 17.2235 132.835 17.1718 133.136 17.0684C133.436 16.9603 133.697 16.8029 133.918 16.5961C134.139 16.3893 134.306 16.1331 134.419 15.8277L136.801 16.0955C136.651 16.7253 136.364 17.2752 135.941 17.7452C135.523 18.2104 134.987 18.5723 134.334 18.8308C133.681 19.0846 132.933 19.2115 132.092 19.2115Z" fill="#C92071"/>
</svg>
