<svg width="140" height="24" viewBox="0 0 140 24" fill="none" xmlns="http://www.w3.org/2000/svg">
<path d="M2.71231 2.75418C2.04551 2.86633 1.4424 3.18036 0.955408 3.66635C0.595786 4.02897 0.442197 4.25327 0.243656 4.72057C-0.0148225 5.31497 0.000161746 4.93366 0.000161746 11.7001C0.000161746 18.3208 -0.00733038 18.0591 0.206195 18.6199C0.352292 19.0124 0.577056 19.3638 0.895471 19.6965C1.34874 20.1713 1.83573 20.4554 2.48006 20.6274L2.79098 20.7096L8.76595 20.7246C13.0177 20.7321 14.8496 20.7246 15.1118 20.6947C15.891 20.605 16.5203 20.3096 17.0597 19.775C17.4606 19.3788 17.6966 18.9937 17.8914 18.4143L18 18.0965V11.7413V5.386L17.9138 5.09067C17.5992 4.0028 16.7825 3.1841 15.6774 2.83643L15.3403 2.73175L9.12183 2.72801C5.70167 2.72427 2.8172 2.73549 2.71231 2.75418ZM6.70187 9.49449C7.96429 10.7057 8.98697 11.7114 8.98322 11.7263C8.97573 11.7413 7.93807 12.7469 6.67565 13.9619L4.37557 16.1712L3.77994 15.5993C3.45403 15.289 3.18432 15.0123 3.18806 14.9937C3.18806 14.9712 3.94851 14.231 4.87379 13.3488C5.79532 12.4628 6.55203 11.73 6.55577 11.7188C6.55577 11.7039 5.79907 10.9637 4.87005 10.0739C3.94477 9.1842 3.18432 8.44774 3.18432 8.43653C3.18432 8.38793 4.33061 7.27389 4.36807 7.28136C4.3943 7.28884 5.44319 8.28325 6.70187 9.49449ZM14.872 15.4796V16.1712H12.6993H10.5266V15.4796V14.788H12.6993H14.872V15.4796Z" fill="#C92071"/>
<path d="M23.1532 6.75473V4.56229H34.6724V6.75473H30.2099V19H27.6156V6.75473H23.1532ZM39.8051 19.2115C38.7195 19.2115 37.7819 18.9859 36.9923 18.5347C36.2075 18.0788 35.6036 17.435 35.1806 16.6031C34.7576 15.7666 34.5461 14.782 34.5461 13.6493C34.5461 12.5355 34.7576 11.5579 35.1806 10.7166C35.6082 9.87069 36.2051 9.21272 36.9712 8.74274C37.7372 8.26806 38.6373 8.03072 39.6712 8.03072C40.3386 8.03072 40.9683 8.13882 41.5605 8.35501C42.1574 8.5665 42.6838 8.89548 43.1396 9.34196C43.6002 9.78844 43.9621 10.3571 44.2253 11.048C44.4885 11.7341 44.6201 12.5519 44.6201 13.5013V14.2838H35.7445V12.5637H42.1738C42.1691 12.0749 42.0634 11.6402 41.8566 11.2595C41.6498 10.8741 41.3608 10.571 40.9895 10.3501C40.6229 10.1292 40.1952 10.0187 39.7065 10.0187C39.1848 10.0187 38.7266 10.1456 38.3318 10.3994C37.937 10.6485 37.6292 10.9775 37.4083 11.3864C37.1921 11.7905 37.0816 12.2347 37.0769 12.7187V14.2203C37.0769 14.8501 37.1921 15.3906 37.4224 15.8418C37.6527 16.2882 37.9746 16.6313 38.3882 16.871C38.8017 17.106 39.2858 17.2235 39.8404 17.2235C40.2117 17.2235 40.5477 17.1718 40.8485 17.0684C41.1493 16.9603 41.4101 16.8029 41.631 16.5961C41.8519 16.3893 42.0187 16.1331 42.1315 15.8277L44.5143 16.0955C44.3639 16.7253 44.0772 17.2752 43.6543 17.7452C43.236 18.2104 42.7002 18.5723 42.0469 18.8308C41.3937 19.0846 40.6464 19.2115 39.8051 19.2115ZM49.1325 12.6553V19H46.5805V8.17172H49.0197V10.0117H49.1466C49.3957 9.40541 49.7928 8.92368 50.338 8.5665C50.8879 8.20932 51.567 8.03072 52.3753 8.03072C53.1226 8.03072 53.7735 8.19052 54.3281 8.5101C54.8874 8.82969 55.3197 9.29261 55.6252 9.89888C55.9354 10.5052 56.0882 11.2407 56.0835 12.1054V19H53.5315V12.5002C53.5315 11.7764 53.3435 11.2101 52.9675 10.8012C52.5962 10.3924 52.0816 10.1879 51.4236 10.1879C50.9772 10.1879 50.58 10.2866 50.2322 10.484C49.8892 10.6767 49.6189 10.9563 49.4215 11.3229C49.2288 11.6895 49.1325 12.1336 49.1325 12.6553ZM61.0312 12.6553V19H58.4792V8.17172H60.9184V10.0117H61.0453C61.2944 9.40541 61.6915 8.92368 62.2367 8.5665C62.7866 8.20932 63.4657 8.03072 64.274 8.03072C65.0213 8.03072 65.6722 8.19052 66.2268 8.5101C66.7861 8.82969 67.2184 9.29261 67.5239 9.89888C67.8341 10.5052 67.9869 11.2407 67.9822 12.1054V19H65.4302V12.5002C65.4302 11.7764 65.2422 11.2101 64.8662 10.8012C64.4949 10.3924 63.9803 10.1879 63.3223 10.1879C62.8759 10.1879 62.4787 10.2866 62.1309 10.484C61.7879 10.6767 61.5176 10.9563 61.3202 11.3229C61.1275 11.6895 61.0312 12.1336 61.0312 12.6553ZM70.3779 19V8.17172H72.9299V19H70.3779ZM71.661 6.63489C71.2568 6.63489 70.909 6.50095 70.6176 6.23306C70.3262 5.96047 70.1805 5.63384 70.1805 5.25316C70.1805 4.86777 70.3262 4.54114 70.6176 4.27325C70.909 4.00067 71.2568 3.86437 71.661 3.86437C72.0698 3.86437 72.4176 4.00067 72.7043 4.27325C72.9957 4.54114 73.1414 4.86777 73.1414 5.25316C73.1414 5.63384 72.9957 5.96047 72.7043 6.23306C72.4176 6.50095 72.0698 6.63489 71.661 6.63489ZM83.9139 11.0339L81.5875 11.2877C81.5217 11.0527 81.4066 10.8318 81.2421 10.625C81.0823 10.4182 80.8661 10.2514 80.5935 10.1245C80.3209 9.99758 79.9872 9.93413 79.5925 9.93413C79.0614 9.93413 78.6149 10.0493 78.253 10.2796C77.8958 10.5099 77.7196 10.8083 77.7243 11.1749C77.7196 11.4898 77.8347 11.7459 78.0697 11.9433C78.3094 12.1407 78.7042 12.3028 79.2541 12.4297L81.1011 12.8245C82.1256 13.0454 82.887 13.3955 83.3852 13.8749C83.8881 14.3543 84.1418 14.9817 84.1465 15.7572C84.1418 16.4386 83.9421 17.0402 83.5473 17.5619C83.1572 18.0788 82.6144 18.483 81.9189 18.7744C81.2233 19.0658 80.4243 19.2115 79.522 19.2115C78.1966 19.2115 77.1298 18.9342 76.3214 18.3796C75.5131 17.8204 75.0313 17.0425 74.8762 16.0462L77.3648 15.8065C77.4776 16.2953 77.7173 16.6642 78.0838 16.9133C78.4504 17.1624 78.9274 17.2869 79.5149 17.2869C80.1212 17.2869 80.6076 17.1624 80.9742 16.9133C81.3455 16.6642 81.5311 16.3564 81.5311 15.9898C81.5311 15.6796 81.4113 15.4235 81.1716 15.2214C80.9366 15.0193 80.57 14.8642 80.0718 14.7561L78.2248 14.3684C77.1862 14.1522 76.4178 13.7879 75.9196 13.2757C75.4214 12.7587 75.1747 12.1054 75.1794 11.3159C75.1747 10.6485 75.3556 10.0704 75.7222 9.58165C76.0935 9.08817 76.6081 8.70749 77.2661 8.4396C77.9287 8.16702 78.6925 8.03072 79.5572 8.03072C80.8262 8.03072 81.8249 8.30096 82.5533 8.84143C83.2865 9.38191 83.74 10.1127 83.9139 11.0339ZM98.7371 8.53125C98.6713 7.91558 98.394 7.4362 97.9052 7.09312C97.4212 6.75003 96.7914 6.57849 96.0159 6.57849C95.4708 6.57849 95.0031 6.66074 94.613 6.82523C94.223 6.98972 93.9245 7.21296 93.7177 7.49495C93.5109 7.77694 93.4052 8.09887 93.4005 8.46075C93.4005 8.76154 93.4686 9.02238 93.6049 9.24327C93.7459 9.46416 93.9363 9.65215 94.176 9.80724C94.4157 9.95763 94.6812 10.0845 94.9726 10.1879C95.264 10.2913 95.5577 10.3783 95.8538 10.4488L97.2073 10.7871C97.7525 10.914 98.2765 11.0856 98.7794 11.3018C99.287 11.518 99.7405 11.7905 100.14 12.1195C100.544 12.4485 100.864 12.8456 101.099 13.3109C101.334 13.7762 101.451 14.3214 101.451 14.9464C101.451 15.7924 101.235 16.5373 100.803 17.1812C100.37 17.8204 99.7452 18.3209 98.9274 18.6828C98.1144 19.0399 97.1298 19.2185 95.9736 19.2185C94.8504 19.2185 93.8752 19.0446 93.048 18.6969C92.2256 18.3491 91.5817 17.8415 91.1164 17.1741C90.6558 16.5068 90.4067 15.6937 90.3691 14.735H92.9423C92.9799 15.2378 93.135 15.6561 93.4076 15.9898C93.6801 16.3235 94.035 16.5726 94.4721 16.7371C94.9138 16.9016 95.4073 16.9838 95.9525 16.9838C96.5212 16.9838 97.0193 16.8992 97.447 16.73C97.8794 16.5561 98.2178 16.3164 98.4622 16.0109C98.7065 15.7008 98.8311 15.3389 98.8358 14.9253C98.8311 14.5493 98.7206 14.2391 98.5045 13.9947C98.2883 13.7457 97.9851 13.5389 97.5951 13.3744C97.2097 13.2052 96.7585 13.0548 96.2415 12.9232L94.5989 12.5002C93.4099 12.1947 92.4699 11.7318 91.7791 11.1114C91.0929 10.4864 90.7498 9.65685 90.7498 8.62289C90.7498 7.77224 90.9801 7.02732 91.4407 6.38815C91.906 5.74898 92.5381 5.25316 93.3371 4.90067C94.136 4.54349 95.0407 4.3649 96.0512 4.3649C97.0757 4.3649 97.9734 4.54349 98.7441 4.90067C99.5196 5.25316 100.128 5.74428 100.57 6.37405C101.012 6.99912 101.24 7.71819 101.254 8.53125H98.7371ZM108.879 8.17172V10.1456H102.654V8.17172H108.879ZM104.191 5.57744H106.743V15.7431C106.743 16.0861 106.794 16.3493 106.898 16.5326C107.006 16.7112 107.147 16.8334 107.321 16.8992C107.495 16.965 107.687 16.9979 107.899 16.9979C108.059 16.9979 108.204 16.9861 108.336 16.9626C108.472 16.9391 108.576 16.918 108.646 16.8992L109.076 18.8943C108.94 18.9413 108.745 18.993 108.491 19.0493C108.242 19.1057 107.936 19.1386 107.574 19.148C106.935 19.1668 106.36 19.0705 105.847 18.859C105.335 18.6428 104.929 18.3091 104.628 17.858C104.332 17.4068 104.186 16.8428 104.191 16.166V5.57744ZM115.421 19.2115C114.364 19.2115 113.447 18.9789 112.672 18.5136C111.897 18.0483 111.295 17.3974 110.867 16.5608C110.444 15.7243 110.233 14.7467 110.233 13.6282C110.233 12.5096 110.444 11.5297 110.867 10.6884C111.295 9.84719 111.897 9.19392 112.672 8.72864C113.447 8.26336 114.364 8.03072 115.421 8.03072C116.479 8.03072 117.395 8.26336 118.171 8.72864C118.946 9.19392 119.545 9.84719 119.968 10.6884C120.396 11.5297 120.61 12.5096 120.61 13.6282C120.61 14.7467 120.396 15.7243 119.968 16.5608C119.545 17.3974 118.946 18.0483 118.171 18.5136C117.395 18.9789 116.479 19.2115 115.421 19.2115ZM115.435 17.1671C116.009 17.1671 116.488 17.0096 116.874 16.6948C117.259 16.3752 117.546 15.9475 117.734 15.4117C117.926 14.8759 118.023 14.2791 118.023 13.6211C118.023 12.9584 117.926 12.3592 117.734 11.8234C117.546 11.283 117.259 10.8529 116.874 10.5334C116.488 10.2138 116.009 10.054 115.435 10.054C114.848 10.054 114.359 10.2138 113.969 10.5334C113.584 10.8529 113.295 11.283 113.102 11.8234C112.914 12.3592 112.82 12.9584 112.82 13.6211C112.82 14.2791 112.914 14.8759 113.102 15.4117C113.295 15.9475 113.584 16.3752 113.969 16.6948C114.359 17.0096 114.848 17.1671 115.435 17.1671ZM122.577 19V8.17172H125.052V9.97643H125.165C125.362 9.35136 125.7 8.86963 126.18 8.53125C126.664 8.18817 127.216 8.01662 127.836 8.01662C127.977 8.01662 128.135 8.02367 128.309 8.03777C128.487 8.04717 128.635 8.06362 128.753 8.08712V10.4347C128.645 10.3971 128.473 10.3642 128.238 10.336C128.008 10.3031 127.785 10.2866 127.569 10.2866C127.103 10.2866 126.685 10.3877 126.314 10.5898C125.947 10.7871 125.658 11.0621 125.447 11.4146C125.235 11.767 125.129 12.1736 125.129 12.6342V19H122.577ZM134.598 19.2115C133.512 19.2115 132.574 18.9859 131.785 18.5347C131 18.0788 130.396 17.435 129.973 16.6031C129.55 15.7666 129.339 14.782 129.339 13.6493C129.339 12.5355 129.55 11.5579 129.973 10.7166C130.401 9.87069 130.998 9.21272 131.764 8.74274C132.53 8.26806 133.43 8.03072 134.464 8.03072C135.131 8.03072 135.761 8.13882 136.353 8.35501C136.95 8.5665 137.476 8.89548 137.932 9.34196C138.393 9.78844 138.755 10.3571 139.018 11.048C139.281 11.7341 139.413 12.5519 139.413 13.5013V14.2838H130.537V12.5637H136.966C136.962 12.0749 136.856 11.6402 136.649 11.2595C136.442 10.8741 136.153 10.571 135.782 10.3501C135.416 10.1292 134.988 10.0187 134.499 10.0187C133.977 10.0187 133.519 10.1456 133.124 10.3994C132.73 10.6485 132.422 10.9775 132.201 11.3864C131.985 11.7905 131.874 12.2347 131.87 12.7187V14.2203C131.87 14.8501 131.985 15.3906 132.215 15.8418C132.445 16.2882 132.767 16.6313 133.181 16.871C133.594 17.106 134.078 17.2235 134.633 17.2235C135.004 17.2235 135.34 17.1718 135.641 17.0684C135.942 16.9603 136.203 16.8029 136.424 16.5961C136.644 16.3893 136.811 16.1331 136.924 15.8277L139.307 16.0955C139.157 16.7253 138.87 17.2752 138.447 17.7452C138.029 18.2104 137.493 18.5723 136.84 18.8308C136.186 19.0846 135.439 19.2115 134.598 19.2115Z" fill="#C92071"/>
</svg>
