<svg width="115" height="38" viewBox="0 0 115 38" fill="none" xmlns="http://www.w3.org/2000/svg">
<path d="M1.40909 30V18.3636H5.34091C6.25 18.3636 6.99621 18.5189 7.57955 18.8295C8.16288 19.1364 8.5947 19.5587 8.875 20.0966C9.1553 20.6345 9.29545 21.2462 9.29545 21.9318C9.29545 22.6174 9.1553 23.2254 8.875 23.7557C8.5947 24.286 8.16477 24.7027 7.58523 25.0057C7.00568 25.3049 6.26515 25.4545 5.36364 25.4545H2.18182V24.1818H5.31818C5.93939 24.1818 6.43939 24.0909 6.81818 23.9091C7.20076 23.7273 7.47727 23.4697 7.64773 23.1364C7.82197 22.7992 7.90909 22.3977 7.90909 21.9318C7.90909 21.4659 7.82197 21.0587 7.64773 20.7102C7.47349 20.3617 7.19508 20.0928 6.8125 19.9034C6.42992 19.7102 5.92424 19.6136 5.29545 19.6136H2.81818V30H1.40909ZM6.88636 24.7727L9.75 30H8.11364L5.29545 24.7727H6.88636ZM15.6207 31.4545V16.9091H16.5526V31.4545H15.6207ZM18.7571 21.2727C18.6889 20.697 18.4124 20.25 17.9276 19.9318C17.4427 19.6136 16.848 19.4545 16.1435 19.4545C15.6283 19.4545 15.1776 19.5379 14.7912 19.7045C14.4086 19.8712 14.1094 20.1004 13.8935 20.392C13.6813 20.6837 13.5753 21.0152 13.5753 21.3864C13.5753 21.697 13.6491 21.964 13.7969 22.1875C13.9484 22.4072 14.1416 22.5909 14.3764 22.7386C14.6113 22.8826 14.8575 23.0019 15.1151 23.0966C15.3726 23.1875 15.6094 23.2614 15.8253 23.3182L17.0071 23.6364C17.3101 23.7159 17.6473 23.8258 18.0185 23.9659C18.3935 24.1061 18.7514 24.2973 19.0923 24.5398C19.437 24.7784 19.7211 25.0852 19.9446 25.4602C20.1681 25.8352 20.2798 26.2955 20.2798 26.8409C20.2798 27.4697 20.1151 28.0379 19.7855 28.5455C19.4598 29.053 18.9825 29.4564 18.3537 29.7557C17.7287 30.0549 16.9692 30.2045 16.0753 30.2045C15.242 30.2045 14.5204 30.0701 13.9105 29.8011C13.3045 29.5322 12.8272 29.1572 12.4787 28.6761C12.134 28.1951 11.9389 27.6364 11.8935 27H13.348C13.3859 27.4394 13.5336 27.803 13.7912 28.0909C14.0526 28.375 14.3821 28.5871 14.7798 28.7273C15.1813 28.8636 15.6132 28.9318 16.0753 28.9318C16.6132 28.9318 17.0961 28.8447 17.5241 28.6705C17.9522 28.4924 18.2912 28.2462 18.5412 27.9318C18.7912 27.6136 18.9162 27.2424 18.9162 26.8182C18.9162 26.4318 18.8082 26.1174 18.5923 25.875C18.3764 25.6326 18.0923 25.4356 17.7401 25.2841C17.3878 25.1326 17.0071 25 16.598 24.8864L15.1662 24.4773C14.2571 24.2159 13.5374 23.8428 13.0071 23.358C12.4768 22.8731 12.2116 22.2386 12.2116 21.4545C12.2116 20.803 12.3878 20.2348 12.7401 19.75C13.0961 19.2614 13.5734 18.8826 14.1719 18.6136C14.7741 18.3409 15.4465 18.2045 16.1889 18.2045C16.9389 18.2045 17.6056 18.339 18.1889 18.608C18.7723 18.8731 19.2344 19.2367 19.5753 19.6989C19.92 20.161 20.1018 20.6856 20.1207 21.2727H18.7571Z" fill="#474747"/>
<path d="M27.8864 30V26.4545L36.1705 18.7841C36.875 18.1023 37.4659 17.4886 37.9432 16.9432C38.428 16.3977 38.7955 15.8636 39.0455 15.3409C39.2955 14.8106 39.4205 14.2386 39.4205 13.625C39.4205 12.9432 39.2652 12.3561 38.9545 11.8636C38.6439 11.3636 38.2197 10.9811 37.6818 10.7159C37.1439 10.4432 36.5341 10.3068 35.8523 10.3068C35.1402 10.3068 34.5189 10.4508 33.9886 10.7386C33.4583 11.0265 33.0492 11.4394 32.7614 11.9773C32.4735 12.5152 32.3295 13.1553 32.3295 13.8977H27.6591C27.6591 12.375 28.0038 11.053 28.6932 9.93182C29.3826 8.81061 30.3485 7.94318 31.5909 7.32954C32.8333 6.71591 34.2652 6.40909 35.8864 6.40909C37.553 6.40909 39.0038 6.70454 40.2386 7.29545C41.4811 7.87879 42.447 8.68939 43.1364 9.72727C43.8258 10.7652 44.1705 11.9545 44.1705 13.2955C44.1705 14.1742 43.9962 15.0417 43.6477 15.8977C43.3068 16.7538 42.697 17.7045 41.8182 18.75C40.9394 19.7879 39.7008 21.0341 38.1023 22.4886L34.7045 25.8182V25.9773H44.4773V30H27.8864ZM59.1676 6.72727V30H54.2472V11.3977H54.1108L48.7812 14.7386V10.375L54.5426 6.72727H59.1676ZM74.1193 6.40909C75.3163 6.40909 76.4678 6.60985 77.5739 7.01136C78.6875 7.41288 79.6799 8.05303 80.5511 8.93182C81.4299 9.81061 82.1231 10.9773 82.6307 12.4318C83.1458 13.8788 83.4072 15.6553 83.4148 17.7614C83.4148 19.7386 83.1913 21.5038 82.7443 23.0568C82.3049 24.6023 81.6723 25.9167 80.8466 27C80.0208 28.0833 79.0246 28.9091 77.858 29.4773C76.6913 30.0379 75.3883 30.3182 73.9489 30.3182C72.3958 30.3182 71.0246 30.0189 69.8352 29.4205C68.6458 28.8144 67.6875 27.9924 66.9602 26.9545C66.2405 25.9091 65.8049 24.7348 65.6534 23.4318H70.5057C70.6951 24.2803 71.0928 24.9394 71.6989 25.4091C72.3049 25.8712 73.0549 26.1023 73.9489 26.1023C75.464 26.1023 76.6155 25.4432 77.4034 24.125C78.1913 22.7992 78.589 20.9848 78.5966 18.6818H78.4375C78.089 19.3636 77.6193 19.9508 77.0284 20.4432C76.4375 20.928 75.7595 21.303 74.9943 21.5682C74.2367 21.8333 73.4299 21.9659 72.5739 21.9659C71.2027 21.9659 69.9792 21.6439 68.9034 21C67.8277 20.3561 66.9792 19.4697 66.358 18.3409C65.7367 17.2121 65.4261 15.9242 65.4261 14.4773C65.4186 12.9167 65.7784 11.5265 66.5057 10.3068C67.233 9.08712 68.2481 8.13258 69.5511 7.44318C70.8617 6.74621 72.3845 6.40151 74.1193 6.40909ZM74.1534 10.2727C73.3883 10.2727 72.7064 10.4545 72.108 10.8182C71.517 11.1818 71.0473 11.6705 70.6989 12.2841C70.358 12.8977 70.1913 13.5833 70.1989 14.3409C70.1989 15.1061 70.3655 15.7955 70.6989 16.4091C71.0398 17.0152 71.5019 17.5 72.0852 17.8636C72.6761 18.2197 73.3504 18.3977 74.108 18.3977C74.6761 18.3977 75.2027 18.2917 75.6875 18.0795C76.1723 17.8674 76.5928 17.5758 76.9489 17.2045C77.3125 16.8258 77.5966 16.3902 77.8011 15.8977C78.0057 15.4053 78.108 14.8826 78.108 14.3295C78.1004 13.5947 77.9261 12.9205 77.5852 12.3068C77.2443 11.6932 76.7746 11.2008 76.1761 10.8295C75.5777 10.4583 74.9034 10.2727 74.1534 10.2727ZM89.5341 28.4091L89.4716 29.0341C89.4223 29.5341 89.3277 30.0322 89.1875 30.5284C89.0511 31.0284 88.9072 31.4811 88.7557 31.8864C88.608 32.2917 88.4886 32.6098 88.3977 32.8409H86.8295C86.8864 32.6174 86.964 32.3049 87.0625 31.9034C87.161 31.5057 87.2538 31.0587 87.3409 30.5625C87.428 30.0663 87.483 29.5606 87.5057 29.0455L87.5341 28.4091H89.5341ZM96.5682 30.2557C95.5909 30.2519 94.75 30.0114 94.0455 29.5341C93.3447 29.0568 92.8049 28.3655 92.4261 27.4602C92.0511 26.5549 91.8655 25.4659 91.8693 24.1932C91.8693 22.9242 92.0568 21.8428 92.4318 20.9489C92.8106 20.0549 93.3504 19.375 94.0511 18.9091C94.7557 18.4394 95.5947 18.2045 96.5682 18.2045C97.5417 18.2045 98.3788 18.4394 99.0795 18.9091C99.7841 19.3788 100.326 20.0606 100.705 20.9545C101.083 21.8447 101.271 22.9242 101.267 24.1932C101.267 25.4697 101.078 26.5606 100.699 27.4659C100.324 28.3712 99.786 29.0625 99.0852 29.5398C98.3845 30.017 97.5455 30.2557 96.5682 30.2557ZM96.5682 28.2159C97.2348 28.2159 97.767 27.8807 98.1648 27.2102C98.5625 26.5398 98.7595 25.5341 98.7557 24.1932C98.7557 23.3106 98.6648 22.5758 98.483 21.9886C98.3049 21.4015 98.0511 20.9602 97.7216 20.6648C97.3958 20.3693 97.0114 20.2216 96.5682 20.2216C95.9053 20.2216 95.375 20.553 94.9773 21.2159C94.5795 21.8788 94.3788 22.8712 94.375 24.1932C94.375 25.0871 94.464 25.8333 94.642 26.4318C94.8239 27.0265 95.0795 27.4735 95.4091 27.7727C95.7386 28.0682 96.125 28.2159 96.5682 28.2159ZM108.334 30.2557C107.357 30.2519 106.516 30.0114 105.811 29.5341C105.11 29.0568 104.571 28.3655 104.192 27.4602C103.817 26.5549 103.631 25.4659 103.635 24.1932C103.635 22.9242 103.822 21.8428 104.197 20.9489C104.576 20.0549 105.116 19.375 105.817 18.9091C106.521 18.4394 107.36 18.2045 108.334 18.2045C109.307 18.2045 110.144 18.4394 110.845 18.9091C111.55 19.3788 112.091 20.0606 112.47 20.9545C112.849 21.8447 113.036 22.9242 113.033 24.1932C113.033 25.4697 112.843 26.5606 112.464 27.4659C112.089 28.3712 111.552 29.0625 110.851 29.5398C110.15 30.017 109.311 30.2557 108.334 30.2557ZM108.334 28.2159C109 28.2159 109.533 27.8807 109.93 27.2102C110.328 26.5398 110.525 25.5341 110.521 24.1932C110.521 23.3106 110.43 22.5758 110.249 21.9886C110.071 21.4015 109.817 20.9602 109.487 20.6648C109.161 20.3693 108.777 20.2216 108.334 20.2216C107.671 20.2216 107.141 20.553 106.743 21.2159C106.345 21.8788 106.144 22.8712 106.141 24.1932C106.141 25.0871 106.23 25.8333 106.408 26.4318C106.589 27.0265 106.845 27.4735 107.175 27.7727C107.504 28.0682 107.891 28.2159 108.334 28.2159Z" fill="#474747"/>
</svg>
