<svg width="55" height="28" viewBox="0 0 55 28" fill="none" xmlns="http://www.w3.org/2000/svg">
<path d="M1.20455 20V18.9773L5.04545 14.7727C5.49621 14.2803 5.86742 13.8523 6.15909 13.4886C6.45076 13.1212 6.66667 12.7765 6.80682 12.4545C6.95076 12.1288 7.02273 11.7879 7.02273 11.4318C7.02273 11.0227 6.92424 10.6686 6.72727 10.3693C6.53409 10.0701 6.26894 9.83901 5.93182 9.67614C5.5947 9.51326 5.21591 9.43182 4.79545 9.43182C4.34848 9.43182 3.95833 9.52462 3.625 9.71023C3.29545 9.89205 3.03977 10.1477 2.85795 10.4773C2.67992 10.8068 2.59091 11.1932 2.59091 11.6364H1.25C1.25 10.9545 1.4072 10.3561 1.72159 9.84091C2.03598 9.32576 2.46402 8.92424 3.00568 8.63636C3.55114 8.34848 4.16288 8.20455 4.84091 8.20455C5.52273 8.20455 6.12689 8.34848 6.65341 8.63636C7.17992 8.92424 7.5928 9.3125 7.89205 9.80114C8.19129 10.2898 8.34091 10.8333 8.34091 11.4318C8.34091 11.8598 8.26326 12.2784 8.10795 12.6875C7.95644 13.0928 7.69129 13.5455 7.3125 14.0455C6.9375 14.5417 6.41667 15.1477 5.75 15.8636L3.13636 18.6591V18.75H8.54545V20H1.20455ZM15.733 8.36364V20H14.3239V9.84091H14.2557L11.4148 11.7273V10.2955L14.3239 8.36364H15.733ZM23.5341 8.20455C24.0114 8.20833 24.4886 8.29924 24.9659 8.47727C25.4432 8.6553 25.8788 8.95076 26.2727 9.36364C26.6667 9.77273 26.983 10.3314 27.2216 11.0398C27.4602 11.7481 27.5795 12.6364 27.5795 13.7045C27.5795 14.7386 27.4811 15.6572 27.2841 16.4602C27.0909 17.2595 26.8106 17.9337 26.4432 18.483C26.0795 19.0322 25.6364 19.4489 25.1136 19.733C24.5947 20.017 24.0076 20.1591 23.3523 20.1591C22.7008 20.1591 22.1193 20.0303 21.608 19.7727C21.1004 19.5114 20.6837 19.1496 20.358 18.6875C20.036 18.2216 19.8295 17.6818 19.7386 17.0682H21.125C21.25 17.6023 21.4981 18.0436 21.8693 18.392C22.2443 18.7367 22.7386 18.9091 23.3523 18.9091C24.25 18.9091 24.9583 18.517 25.4773 17.733C26 16.9489 26.2614 15.8409 26.2614 14.4091H26.1705C25.9583 14.7273 25.7064 15.0019 25.4148 15.233C25.1231 15.464 24.7992 15.642 24.4432 15.767C24.0871 15.892 23.7083 15.9545 23.3068 15.9545C22.6402 15.9545 22.0284 15.7898 21.4716 15.4602C20.9186 15.1269 20.4754 14.6705 20.142 14.0909C19.8125 13.5076 19.6477 12.8409 19.6477 12.0909C19.6477 11.3788 19.8068 10.7273 20.125 10.1364C20.447 9.54167 20.8977 9.06818 21.4773 8.71591C22.0606 8.36364 22.7462 8.19318 23.5341 8.20455ZM23.5341 9.45455C23.0568 9.45455 22.6269 9.57386 22.2443 9.8125C21.8655 10.0473 21.5644 10.3655 21.3409 10.767C21.1212 11.1648 21.0114 11.6061 21.0114 12.0909C21.0114 12.5758 21.1174 13.017 21.3295 13.4148C21.5455 13.8087 21.839 14.1231 22.2102 14.358C22.5852 14.589 23.0114 14.7045 23.4886 14.7045C23.8485 14.7045 24.1837 14.6345 24.4943 14.4943C24.8049 14.3504 25.0758 14.1553 25.3068 13.9091C25.5417 13.6591 25.7254 13.3769 25.858 13.0625C25.9905 12.7443 26.0568 12.4129 26.0568 12.0682C26.0568 11.6136 25.947 11.1875 25.7273 10.7898C25.5114 10.392 25.2121 10.0701 24.8295 9.82386C24.4508 9.57765 24.0189 9.45455 23.5341 9.45455ZM32.1804 18.4091L32.0895 19.0227C32.0251 19.4545 31.9266 19.9167 31.794 20.4091C31.6652 20.9015 31.5308 21.3655 31.3906 21.8011C31.2505 22.2367 31.1349 22.5833 31.044 22.8409H30.0213C30.0705 22.5985 30.1349 22.2784 30.2145 21.8807C30.294 21.483 30.3736 21.0379 30.4531 20.5455C30.5365 20.0568 30.6046 19.5568 30.6577 19.0455L30.7259 18.4091H32.1804ZM38.7812 20.1591C37.9252 20.1591 37.196 19.9261 36.5938 19.4602C35.9915 18.9905 35.5313 18.3106 35.2131 17.4205C34.8949 16.5265 34.7358 15.447 34.7358 14.1818C34.7358 12.9242 34.8949 11.8504 35.2131 10.9602C35.535 10.0663 35.9972 9.38447 36.5994 8.91477C37.2055 8.44129 37.9328 8.20455 38.7812 8.20455C39.6297 8.20455 40.3551 8.44129 40.9574 8.91477C41.5634 9.38447 42.0256 10.0663 42.3438 10.9602C42.6657 11.8504 42.8267 12.9242 42.8267 14.1818C42.8267 15.447 42.6676 16.5265 42.3494 17.4205C42.0312 18.3106 41.571 18.9905 40.9688 19.4602C40.3665 19.9261 39.6373 20.1591 38.7812 20.1591ZM38.7812 18.9091C39.6297 18.9091 40.2888 18.5 40.7585 17.6818C41.2282 16.8636 41.4631 15.697 41.4631 14.1818C41.4631 13.1742 41.3551 12.3163 41.1392 11.608C40.9271 10.8996 40.6203 10.3598 40.2188 9.98864C39.821 9.61742 39.3419 9.43182 38.7812 9.43182C37.9403 9.43182 37.2831 9.84659 36.8097 10.6761C36.3362 11.5019 36.0994 12.6705 36.0994 14.1818C36.0994 15.1894 36.2055 16.0455 36.4176 16.75C36.6297 17.4545 36.9347 17.9905 37.3324 18.358C37.7339 18.7254 38.2169 18.9091 38.7812 18.9091ZM49.5312 20.1591C48.6752 20.1591 47.946 19.9261 47.3438 19.4602C46.7415 18.9905 46.2813 18.3106 45.9631 17.4205C45.6449 16.5265 45.4858 15.447 45.4858 14.1818C45.4858 12.9242 45.6449 11.8504 45.9631 10.9602C46.285 10.0663 46.7472 9.38447 47.3494 8.91477C47.9555 8.44129 48.6828 8.20455 49.5312 8.20455C50.3797 8.20455 51.1051 8.44129 51.7074 8.91477C52.3134 9.38447 52.7756 10.0663 53.0938 10.9602C53.4157 11.8504 53.5767 12.9242 53.5767 14.1818C53.5767 15.447 53.4176 16.5265 53.0994 17.4205C52.7812 18.3106 52.321 18.9905 51.7188 19.4602C51.1165 19.9261 50.3873 20.1591 49.5312 20.1591ZM49.5312 18.9091C50.3797 18.9091 51.0388 18.5 51.5085 17.6818C51.9782 16.8636 52.2131 15.697 52.2131 14.1818C52.2131 13.1742 52.1051 12.3163 51.8892 11.608C51.6771 10.8996 51.3703 10.3598 50.9688 9.98864C50.571 9.61742 50.0919 9.43182 49.5312 9.43182C48.6903 9.43182 48.0331 9.84659 47.5597 10.6761C47.0862 11.5019 46.8494 12.6705 46.8494 14.1818C46.8494 15.1894 46.9555 16.0455 47.1676 16.75C47.3797 17.4545 47.6847 17.9905 48.0824 18.358C48.4839 18.7254 48.9669 18.9091 49.5312 18.9091Z" fill="#CCCCCC"/>
<path d="M0 14.7614H54.5312V15.8523H0V14.7614Z" fill="#CCCCCC"/>
</svg>
