<svg width="94" height="16" viewBox="0 0 94 16" fill="none" xmlns="http://www.w3.org/2000/svg">
<path d="M8.61294 0.744147L10.4622 5.16393L15.1966 5.57463C15.5249 5.60326 15.6585 6.01698 15.4092 6.23477L11.8182 9.37647L12.8943 14.0502C12.9689 14.375 12.6204 14.6305 12.3383 14.4579L8.26965 11.9801L4.20097 14.4579C3.91814 14.6297 3.57037 14.3742 3.645 14.0502L4.72113 9.37647L1.12932 6.23402C0.88006 6.01623 1.0129 5.60251 1.342 5.57388L6.07636 5.16317L7.92562 0.744147C8.05398 0.436684 8.48458 0.436684 8.61294 0.744147Z" fill="#F6AA1C" stroke="#F6AA1C"/>
<path d="M27.9967 0.744147L29.846 5.16393L34.5803 5.57463C34.9087 5.60326 35.0423 6.01698 34.793 6.23477L31.202 9.37647L32.2781 14.0502C32.3527 14.375 32.0042 14.6305 31.7221 14.4579L27.6534 11.9801L23.5848 14.4579C23.3019 14.6297 22.9542 14.3742 23.0288 14.0502L24.1049 9.37647L20.5131 6.23402C20.2638 6.01623 20.3967 5.60251 20.7258 5.57388L25.4601 5.16317L27.3094 0.744147C27.4378 0.436684 27.8684 0.436684 27.9967 0.744147Z" fill="#F6AA1C" stroke="#F6AA1C"/>
<path d="M47.3805 0.744147L49.2298 5.16393L53.9641 5.57463C54.2925 5.60326 54.4261 6.01698 54.1768 6.23477L50.5858 9.37647L51.6619 14.0502C51.7365 14.375 51.388 14.6305 51.1059 14.4579L47.0372 11.9801L42.9686 14.4579C42.6857 14.6297 42.338 14.3742 42.4126 14.0502L43.4887 9.37647L39.8969 6.23402C39.6476 6.01623 39.7805 5.60251 40.1096 5.57388L44.8439 5.16317L46.6932 0.744147C46.8216 0.436684 47.2522 0.436684 47.3805 0.744147Z" fill="#F6AA1C" stroke="#F6AA1C"/>
<path d="M66.7663 0.744147L68.6155 5.16393L73.3499 5.57463C73.6782 5.60326 73.8118 6.01698 73.5626 6.23477L69.9715 9.37647L71.0476 14.0502C71.1223 14.375 70.7737 14.6305 70.4917 14.4579L66.423 11.9801L62.3543 14.4579C62.0715 14.6297 61.7237 14.3742 61.7983 14.0502L62.8744 9.37647L59.2826 6.23402C59.0334 6.01623 59.1662 5.60251 59.4953 5.57388L64.2297 5.16317L66.0789 0.744147C66.2073 0.436684 66.6379 0.436684 66.7663 0.744147Z" fill="#F6AA1C" stroke="#F6AA1C"/>
<path d="M86.151 0.744147L88.0003 5.16392L92.7346 5.57463C93.063 5.60326 93.1966 6.01698 92.9473 6.23477L89.3563 9.37647L90.4324 14.0502C90.507 14.375 90.1585 14.6305 89.8764 14.4579L85.8077 11.9801L81.7391 14.4579C81.4562 14.6297 81.1085 14.3742 81.1831 14.0502L82.2592 9.37647L78.6674 6.23402C78.4181 6.01623 78.551 5.60251 78.8801 5.57388L83.6144 5.16317L85.4637 0.744147C85.5921 0.436684 86.0227 0.436684 86.151 0.744147Z" stroke="#F6AA1C"/>
</svg>
